# xmcd CD database file
# Copyright (C) 1993-1998 Ti Kan
# 
# Track frame offsets:
#     150
#     21525
#     50325
#     81750
#     97950
#     111375
#     127050
#     146400
#     160650
#     189225
# 
# Disc length: 3089 seconds
# 
# Revision: 1
# Processed by: cddbd v1.4b41PL1 Copyright (c) Steve Scherf et al.
# Submitted via: DiscPlay 4.0.3
# 
DISCID=810c0f0a
DTITLE=Various Artist - The Ultimate Blues Collection Volume Two, Disk 1
DYEAR=1900
DGENRE=
TTITLE0=Willie Mabon -  I don't know
TTITLE1=Willie Mabon - Rainy Night In Georgia
TTITLE2=Carey Bell - She's Nineteen Years Old
TTITLE3=Fernest Arceneaux - The Things I Used To Do
TTITLE4=Archie Edwards - Boogie Woogie Man
TTITLE5=Big Jay McNeely - Pretty Girls
TTITLE6=Big Jay McNeely - Country Boy
TTITLE7=Detroit Gary Wiggins -  That What You Doin' To Me
TTITLE8=Luther Allison - The Dock Of The Bay
TTITLE9=Luther Allison - Let's Try It Again
EXTD=
EXTT0=
EXTT1=
EXTT2=\n\n
EXTT3=
EXTT4=
EXTT5=
EXTT6=
EXTT7=
EXTT8=
EXTT9=
PLAYORDER=
